<?xml version="1.0" standalone="no"?>
<!DOCTYPE svg PUBLIC "-//W3C//DTD SVG 20010904//EN"
 "http://www.w3.org/TR/2001/REC-SVG-20010904/DTD/svg10.dtd">
<svg version="1.0" xmlns="http://www.w3.org/2000/svg"
 width="300.000000pt" height="300.000000pt" viewBox="0 0 300.000000 300.000000"
 preserveAspectRatio="xMidYMid meet">
<metadata>
Created by potrace 1.10, written by Peter Selinger 2001-2011
</metadata>
<g transform="translate(0.000000,300.000000) scale(0.100000,-0.100000)"
fill="#000000" stroke="none">
<path d="M1135 2410 c-190 -52 -346 -215 -392 -412 -10 -41 -11 -972 -1 -1011
28 -113 72 -192 153 -273 110 -110 240 -164 396 -164 120 0 216 35 394 144 50
31 97 59 106 63 8 5 118 67 244 138 200 113 240 140 306 205 72 72 129 162
145 230 52 220 6 399 -141 546 -38 39 -97 85 -130 104 -33 18 -186 106 -340
196 -367 212 -341 198 -426 227 -89 30 -219 32 -314 7z m295 -34 c47 -14 118
-45 135 -59 24 -18 276 -165 304 -177 17 -7 31 -16 31 -21 0 -5 19 -18 43 -30
47 -24 152 -129 163 -162 4 -11 13 -27 20 -35 8 -7 14 -24 14 -37 0 -13 4 -26
9 -29 15 -10 22 -103 10 -157 -13 -59 -39 -119 -62 -138 -12 -10 -19 -6 -37
20 -22 30 -76 69 -170 121 -25 14 -88 50 -140 80 -52 30 -115 66 -140 80 -272
150 -291 160 -313 154 -12 -3 -47 1 -77 9 -195 52 -354 -43 -447 -268 -19 -45
-31 -68 -28 -52 4 17 11 93 15 170 9 139 25 225 41 225 5 0 6 6 4 13 -8 19 70
131 130 186 101 92 227 135 370 126 44 -3 100 -11 125 -19z m915 -538 c111
-126 157 -291 124 -450 -10 -49 -63 -176 -79 -188 -3 -3 -18 -22 -34 -42 -30
-40 -109 -104 -171 -138 -22 -12 -83 -46 -135 -75 -191 -108 -226 -127 -277
-151 -133 -64 -304 -54 -416 23 -39 27 -97 98 -97 119 0 6 -7 18 -16 25 -14
12 -14 14 3 20 10 3 21 2 24 -3 9 -13 76 15 180 74 453 263 609 361 594 376
-3 3 17 28 44 57 81 85 96 123 96 240 0 117 -18 166 -102 275 l-50 65 132 -87
c80 -53 151 -108 180 -140z m-1142 126 c-3 -8 -10 -11 -16 -7 -6 4 -8 0 -4
-10 3 -10 3 -17 -1 -17 -23 0 -27 -68 -22 -453 4 -352 7 -410 20 -420 9 -7 24
-41 35 -76 33 -111 90 -177 193 -224 39 -17 66 -21 157 -22 61 0 128 3 150 7
22 4 33 5 25 1 -8 -3 -71 -34 -140 -68 -151 -75 -215 -95 -310 -95 -239 0
-422 132 -502 363 -17 51 -21 92 -25 227 -2 91 0 211 5 268 4 59 4 102 -1 102
-5 0 -4 7 3 15 9 11 9 15 1 15 -7 0 -9 5 -6 11 4 6 9 32 12 57 9 96 100 244
180 293 58 36 104 48 180 47 55 -1 70 -4 66 -14z m190 -47 c39 -24 195 -115
345 -201 150 -87 279 -168 287 -179 21 -30 19 -70 -5 -99 -11 -14 -61 -49
-112 -78 -112 -64 -100 -57 -372 -214 -120 -69 -227 -128 -236 -131 -28 -9
-69 12 -90 47 -20 32 -20 47 -18 441 l3 409 28 24 c43 36 85 32 170 -19z"/>
</g>
</svg>
